<svg xmlns="http://www.w3.org/2000/svg" xmlns:xlink="http://www.w3.org/1999/xlink" width="40"
  viewbox="0 0 30 30.000001" height="40" version="1.0">
  <defs>
    <clippath>
      <path
        d="M 4.96875 2.902344 L 25.292969 2.902344 L 25.292969 26.128906 L 4.96875 26.128906 Z M 4.96875 2.902344 "
        clip-rule="nonzero" fill="#ffffff">
      </path>
    </clippath>
  </defs>
  <g>
    <path fill="#ffffff"
      d="M 14.042969 2.90625 L 5.503906 2.90625 C 5.207031 2.90625 4.96875 3.144531 4.96875 3.4375 L 4.96875 25.597656 C 4.96875 25.886719 5.207031 26.125 5.503906 26.125 L 14.042969 26.125 C 21.191406 26.125 25.292969 21.855469 25.292969 14.417969 C 25.292969 7.210938 21.085938 2.90625 14.042969 2.90625 Z M 13.59375 22.429688 L 9.78125 22.429688 L 9.78125 6.601562 L 13.59375 6.601562 C 17.921875 6.601562 20.480469 9.476562 20.480469 14.476562 C 20.480469 19.589844 17.984375 22.429688 13.59375 22.429688 Z M 13.59375 22.429688 "
      fill-opacity="1" fill-rule="nonzero">
    </path>
  </g>
</svg>
